<?xml version="1.0" encoding="UTF-8"?>
<svg id="Layer_1" data-name="Layer 1" xmlns="http://www.w3.org/2000/svg" viewBox="0 0 892.11 155.74">
  <defs>
    <style>
      .cls-1 {
        fill: #9d003d;
      }
    </style>
  </defs>
  <path class="cls-1" d="m869.96,17.88L789.11,1.49c-4.25-.86-9-1.34-13.82-1.48v155.72c4.48-.15,9.03-.54,13.94-1.53l83.49-16.96c12.95-2.63,19.33-5.91,19.32-26.23l-.03-66.18c1.39-23.62-11.88-24.89-22.05-26.95Zm3.44,95.24l-71.52,8.47.02-87.48c2.52.29,45.44,5.46,71.56,8.5l-.06,70.5Z"/>
  <path class="cls-1" d="m675.06,17.88c-10.17,2.07-23.76,3.33-22.37,26.95.34-.05,86.58-10.3,90.15-10.71v27.15l-90.2,4.06.02,45.69c.01,20.34,6.68,23.59,19.64,26.23l83.82,17.09c4.68.95,9.02,1.28,13.28,1.41V0c-4.75.14-9.41.59-13.53,1.43l-80.81,16.45Zm67.62,103.77c-24.3-2.85-46.92-5.69-71.23-8.53v-25.45c24.3.79,46.9,1.58,71.23,2.37v31.61Z"/>
  <rect class="cls-1" x="254.94" y="68.18" width="16.01" height="16.01"/>
  <path class="cls-1" d="m229.12,90.41v-45.34h-16.01v45.34c0,8.45-6.88,15.33-15.33,15.33h-27.09l15.24-15.24v-45.43h-16.01v60.67h-15.61l-15.56-15.56h-44.98v-22.1l-16.01,16.01v37.2H31.34c-8.45,0-15.33-6.88-15.33-15.33v-22H0v22c0,17.28,14.06,31.34,31.34,31.34h46.76l15.69-15.69v-15.42h60.35l15.56,15.56h28.09c8.91,0,17.39-3.79,23.33-10.42,5.24,5.85,12.47,9.49,20.22,10.26v.16h26.37l15.62-15.62.38-.39h-39.26c-8.45,0-15.33-6.88-15.33-15.33Z"/>
  <rect class="cls-1" x="362.28" y="68.18" width="16.01" height="16.01"/>
  <polygon class="cls-1" points="106.05 137.3 136.29 137.3 151.91 121.68 152.3 121.29 106.05 121.29 106.05 137.3"/>
  <rect class="cls-1" x="38.89" y="68.4" width="16.01" height="16.01"/>
  <path class="cls-1" d="m450.67,84.06v21.68h-33.5v-37.87l-16.01,16.01v37.42h-46.44c-8.45,0-15.33-6.88-15.33-15.33v-22.22h-16.01v22.22c0,17.28,14.06,31.34,31.34,31.34h46.76l15.69-15.69v-15.11l15.24,15.24h60.31l15.24-15.24v15.24h18.52c17.28,0,31.34-14.06,31.34-31.34v-22.22h-123.01l15.87,15.87Zm57.74.13h33.4v6.22c0,8.45-6.88,15.33-15.33,15.33h-18.07v-21.55Zm-41.73,21.55v-21.55h40.96l-21.55,21.55h-19.41Z"/>
  <polygon class="cls-1" points="571.36 122.06 587.37 106.06 587.37 59.07 571.36 59.07 571.36 122.06"/>
  <path class="cls-1" d="m546.68,46.33l-.4.86,12.46,12.46.4-2.66c1.13-7.67,7.82-13.45,15.57-13.45h25.06l15.15-15.15h-40.21c-11.98,0-22.97,7.04-28.02,17.94Z"/>
  <polygon class="cls-1" points="293.85 122.06 309.86 106.06 309.86 59.07 293.85 59.07 293.85 122.06"/>
  <path class="cls-1" d="m297.19,28.39c-11.98,0-22.97,7.04-28.02,17.94l-.4.86,12.46,12.46.4-2.66c1.13-7.67,7.82-13.45,15.57-13.45h25.06l15.15-15.15h-40.21Z"/>
</svg>